<svg width="139" height="38" viewBox="0 0 139 38" fill="none" xmlns="http://www.w3.org/2000/svg">
<circle cx="17.5" cy="17.5" r="17.5" fill="#1C5CCD"/>
<path d="M22.0155 25.7445L21.8974 15.7497L24.3341 11.1103C24.563 10.6745 24.3803 10.1345 23.9444 9.9056L19.6495 7.64974C19.2137 7.42083 18.6724 7.58049 18.4435 8.01631L16.0067 12.6557L7.70361 18.2274C7.07179 18.6534 6.70741 19.3813 6.75077 20.144C6.79061 20.9048 7.23145 21.5937 7.90627 21.9482L18.8405 27.6912C19.5153 28.0456 20.3328 28.0176 20.9818 27.6186C21.6308 27.2196 22.0268 26.5083 22.019 25.7463L22.0155 25.7445ZM17.2632 19.0915C17.6393 19.289 17.7845 19.7554 17.5869 20.1314C17.3894 20.5075 16.923 20.6527 16.547 20.4552C16.1709 20.2576 16.0257 19.7913 16.2232 19.4152C16.4208 19.0391 16.8871 18.8939 17.2632 19.0915ZM17.5004 13.9783C17.8764 14.1759 18.0216 14.6423 17.8241 15.0183C17.6266 15.3944 17.1602 15.5396 16.7841 15.3421C16.408 15.1445 16.2629 14.6781 16.4604 14.3021C16.6579 13.926 17.1243 13.7808 17.5004 13.9783ZM16.2488 16.3613C16.8603 16.6825 17.0956 17.4384 16.7744 18.0499C16.4532 18.6615 15.6973 18.8968 15.0857 18.5756C14.4742 18.2544 14.2389 17.4985 14.5601 16.8869C14.8813 16.2754 15.6372 16.0401 16.2488 16.3613ZM19.622 25.3752C19.354 25.5439 19.0201 25.5479 18.7389 25.4002L9.84319 20.7278C9.56202 20.5802 9.38113 20.3013 9.36256 19.9866C9.34935 19.6702 9.5009 19.3732 9.76368 19.1973L11.8419 17.8359C12.1371 17.6412 12.5224 17.6418 12.8204 17.8342C14.1684 18.7171 15.1272 20.7677 16.5818 21.4645C17.3593 21.837 18.2169 21.9287 19.0856 21.9141C19.5759 21.9026 19.9855 22.2926 19.9951 22.7864L20.0407 24.5951C20.045 24.9113 19.8899 25.2065 19.6185 25.3734L19.622 25.3752Z" fill="white"/>
<circle cx="38" cy="33" r="5" fill="#1C5CCD"/>
<path d="M55.728 16.1279C54.8107 16.1279 54.0693 15.8505 53.504 15.2959C52.9493 14.7412 52.672 14.0052 52.672 13.0879V7.71187C52.672 6.79454 52.9493 6.05854 53.504 5.50387C54.0693 4.94921 54.8107 4.67188 55.728 4.67188C56.6453 4.67188 57.3867 4.94921 57.952 5.50387C58.5173 6.05854 58.8 6.79454 58.8 7.71187V13.0879C58.8 14.0052 58.5173 14.7412 57.952 15.2959C57.3867 15.8505 56.6453 16.1279 55.728 16.1279ZM55.728 14.5279C56.0907 14.5279 56.384 14.4052 56.608 14.1599C56.832 13.9039 56.944 13.5732 56.944 13.1679V7.63188C56.944 7.22654 56.832 6.90121 56.608 6.65587C56.384 6.39987 56.0907 6.27187 55.728 6.27187C55.3653 6.27187 55.072 6.39987 54.848 6.65587C54.6347 6.90121 54.528 7.22654 54.528 7.63188V13.1679C54.528 13.5732 54.6347 13.9039 54.848 14.1599C55.072 14.4052 55.3653 14.5279 55.728 14.5279Z" fill="#10376F"/>
<path d="M66.9727 16.1279C66.0874 16.1279 65.3727 15.8612 64.8287 15.3279C64.2847 14.7945 64.0127 14.0959 64.0127 13.2319V12.8159C64.0127 12.7625 64.0287 12.7199 64.0607 12.6879C64.1034 12.6452 64.1514 12.6239 64.2047 12.6239H65.6607C65.7141 12.6239 65.7567 12.6452 65.7887 12.6879C65.8314 12.7199 65.8527 12.7625 65.8527 12.8159V13.1359C65.8527 13.5519 65.9541 13.8879 66.1567 14.1439C66.3701 14.3999 66.6421 14.5279 66.9727 14.5279C67.3034 14.5279 67.5754 14.4105 67.7887 14.1759C68.0021 13.9305 68.1087 13.6105 68.1087 13.2159C68.1087 12.9385 68.0501 12.6985 67.9327 12.4959C67.8154 12.2932 67.6501 12.1012 67.4367 11.9199C67.2234 11.7385 66.8821 11.4772 66.4127 11.1359C65.8794 10.7519 65.4474 10.4105 65.1167 10.1119C64.7967 9.81321 64.5247 9.45587 64.3007 9.03987C64.0874 8.61321 63.9807 8.12254 63.9807 7.56787C63.9807 6.68254 64.2474 5.97854 64.7807 5.45587C65.3141 4.93321 66.0181 4.67188 66.8927 4.67188C67.7781 4.67188 68.4927 4.94921 69.0367 5.50387C69.5807 6.04787 69.8527 6.77321 69.8527 7.67987V8.06387C69.8527 8.11721 69.8314 8.16521 69.7887 8.20787C69.7567 8.23987 69.7141 8.25587 69.6607 8.25587H68.2207C68.1674 8.25587 68.1194 8.23987 68.0767 8.20787C68.0447 8.16521 68.0287 8.11721 68.0287 8.06387V7.64787C68.0287 7.23187 67.9221 6.90121 67.7087 6.65587C67.5061 6.39987 67.2341 6.27187 66.8927 6.27187C66.5727 6.27187 66.3114 6.38921 66.1087 6.62387C65.9061 6.84787 65.8047 7.16254 65.8047 7.56787C65.8047 7.95187 65.9114 8.27721 66.1247 8.54387C66.3487 8.81054 66.7807 9.17854 67.4207 9.64787C68.0714 10.1279 68.5621 10.5225 68.8927 10.8319C69.2234 11.1305 69.4794 11.4612 69.6607 11.8239C69.8421 12.1865 69.9327 12.6185 69.9327 13.1199C69.9327 14.0265 69.6607 14.7572 69.1167 15.3119C68.5727 15.8559 67.8581 16.1279 66.9727 16.1279Z" fill="#10376F"/>
<path d="M79.8142 15.9999C79.6862 15.9999 79.6169 15.9412 79.6062 15.8239L79.3022 14.1439C79.3022 14.0905 79.2702 14.0639 79.2062 14.0639H76.8702C76.8062 14.0639 76.7742 14.0905 76.7742 14.1439L76.4702 15.8239C76.4596 15.9412 76.3902 15.9999 76.2622 15.9999H74.8062C74.6569 15.9999 74.5982 15.9305 74.6302 15.7919L76.9982 4.97587C77.0196 4.85854 77.0889 4.79987 77.2062 4.79987H78.9022C79.0196 4.79987 79.0889 4.85854 79.1102 4.97587L81.4782 15.7919V15.8559C81.4782 15.9519 81.4196 15.9999 81.3022 15.9999H79.8142ZM77.0622 12.5279C77.0516 12.5812 77.0782 12.6079 77.1422 12.6079H78.9182C78.9822 12.6079 79.0089 12.5812 78.9982 12.5279L78.0702 7.47187C78.0596 7.43987 78.0436 7.42387 78.0222 7.42387C78.0009 7.42387 77.9849 7.43987 77.9742 7.47187L77.0622 12.5279Z" fill="#10376F"/>
<path d="M86.7591 15.9999C86.7058 15.9999 86.6578 15.9839 86.6151 15.9519C86.5831 15.9092 86.5671 15.8612 86.5671 15.8079V4.99187C86.5671 4.93854 86.5831 4.89587 86.6151 4.86387C86.6578 4.82121 86.7058 4.79987 86.7591 4.79987H88.2311C88.2845 4.79987 88.3271 4.82121 88.3591 4.86387C88.4018 4.89587 88.4231 4.93854 88.4231 4.99187V9.40787C88.4231 9.45054 88.4338 9.47721 88.4551 9.48787C88.4765 9.48787 88.4978 9.47187 88.5191 9.43987L90.9191 4.94387C90.9725 4.84787 91.0525 4.79987 91.1591 4.79987H92.7431C92.8178 4.79987 92.8658 4.82121 92.8871 4.86387C92.9085 4.90654 92.9031 4.95987 92.8711 5.02387L90.4711 9.51987C90.4605 9.56254 90.4551 9.59454 90.4551 9.61587L93.0471 15.7759C93.0578 15.7972 93.0631 15.8292 93.0631 15.8719C93.0631 15.9572 93.0098 15.9999 92.9031 15.9999H91.3191C91.2018 15.9999 91.1271 15.9519 91.0951 15.8559L89.2071 11.2319C89.1965 11.1999 89.1805 11.1892 89.1591 11.1999C89.1378 11.1999 89.1165 11.2105 89.0951 11.2319L88.4551 12.3039C88.4338 12.3465 88.4231 12.3785 88.4231 12.3999V15.8079C88.4231 15.8612 88.4018 15.9092 88.3591 15.9519C88.3271 15.9839 88.2845 15.9999 88.2311 15.9999H86.7591Z" fill="#10376F"/>
<path d="M102.939 15.9999C102.811 15.9999 102.742 15.9412 102.731 15.8239L102.427 14.1439C102.427 14.0905 102.395 14.0639 102.331 14.0639H99.9952C99.9312 14.0639 99.8992 14.0905 99.8992 14.1439L99.5952 15.8239C99.5846 15.9412 99.5152 15.9999 99.3872 15.9999H97.9312C97.7819 15.9999 97.7232 15.9305 97.7552 15.7919L100.123 4.97587C100.145 4.85854 100.214 4.79987 100.331 4.79987H102.027C102.145 4.79987 102.214 4.85854 102.235 4.97587L104.603 15.7919V15.8559C104.603 15.9519 104.545 15.9999 104.427 15.9999H102.939ZM100.187 12.5279C100.177 12.5812 100.203 12.6079 100.267 12.6079H102.043C102.107 12.6079 102.134 12.5812 102.123 12.5279L101.195 7.47187C101.185 7.43987 101.169 7.42387 101.147 7.42387C101.126 7.42387 101.11 7.43987 101.099 7.47187L100.187 12.5279Z" fill="#10376F"/>
<path d="M109.884 15.9999C109.831 15.9999 109.783 15.9839 109.74 15.9519C109.708 15.9092 109.692 15.8612 109.692 15.8079V4.99187C109.692 4.93854 109.708 4.89587 109.74 4.86387C109.783 4.82121 109.831 4.79987 109.884 4.79987H111.356C111.409 4.79987 111.452 4.82121 111.484 4.86387C111.527 4.89587 111.548 4.93854 111.548 4.99187V14.3199C111.548 14.3732 111.575 14.3999 111.628 14.3999H115.084C115.137 14.3999 115.18 14.4212 115.212 14.4639C115.255 14.4959 115.276 14.5385 115.276 14.5919V15.8079C115.276 15.8612 115.255 15.9092 115.212 15.9519C115.18 15.9839 115.137 15.9999 115.084 15.9999H109.884Z" fill="#10376F"/>
<path d="M125.299 15.9999C125.171 15.9999 125.101 15.9412 125.091 15.8239L124.787 14.1439C124.787 14.0905 124.755 14.0639 124.691 14.0639H122.355C122.291 14.0639 122.259 14.0905 122.259 14.1439L121.955 15.8239C121.944 15.9412 121.875 15.9999 121.747 15.9999H120.291C120.141 15.9999 120.083 15.9305 120.115 15.7919L122.483 4.97587C122.504 4.85854 122.573 4.79987 122.691 4.79987H124.387C124.504 4.79987 124.573 4.85854 124.595 4.97587L126.963 15.7919V15.8559C126.963 15.9519 126.904 15.9999 126.787 15.9999H125.299ZM122.547 12.5279C122.536 12.5812 122.563 12.6079 122.627 12.6079H124.403C124.467 12.6079 124.493 12.5812 124.483 12.5279L123.555 7.47187C123.544 7.43987 123.528 7.42387 123.507 7.42387C123.485 7.42387 123.469 7.43987 123.459 7.47187L122.547 12.5279Z" fill="#10376F"/>
<path d="M138.147 12.9279C138.147 13.9092 137.86 14.6665 137.284 15.1999C136.718 15.7332 135.977 15.9999 135.059 15.9999H132.243C132.19 15.9999 132.142 15.9839 132.099 15.9519C132.067 15.9092 132.051 15.8612 132.051 15.8079V4.99187C132.051 4.93854 132.067 4.89587 132.099 4.86387C132.142 4.82121 132.19 4.79987 132.243 4.79987H134.771C135.785 4.79987 136.579 5.05587 137.155 5.56787C137.731 6.07987 138.02 6.82654 138.02 7.80787C138.02 8.90654 137.63 9.69054 136.851 10.1599C136.798 10.1919 136.787 10.2239 136.819 10.2559C137.235 10.5225 137.561 10.8799 137.795 11.3279C138.03 11.7759 138.147 12.3092 138.147 12.9279ZM133.987 6.39987C133.934 6.39987 133.907 6.42654 133.907 6.47987V9.45587C133.907 9.50921 133.934 9.53587 133.987 9.53587H134.803C135.241 9.53587 135.582 9.40254 135.827 9.13587C136.073 8.86921 136.195 8.49054 136.195 7.99988C136.195 7.48787 136.073 7.09321 135.827 6.81588C135.582 6.53854 135.241 6.39987 134.803 6.39987H133.987ZM134.915 14.3839C135.342 14.3839 135.678 14.2345 135.924 13.9359C136.169 13.6372 136.291 13.2159 136.291 12.6719C136.291 12.1172 136.169 11.6852 135.924 11.3759C135.678 11.0559 135.342 10.8959 134.915 10.8959H133.987C133.934 10.8959 133.907 10.9225 133.907 10.9759V14.3039C133.907 14.3572 133.934 14.3839 133.987 14.3839H134.915Z" fill="#10376F"/>
<path d="M58.6504 31.1567V32H54.7402V31.1567H58.6504ZM54.9443 24.1797V32H53.9077V24.1797H54.9443Z" fill="#002A66"/>
<path d="M65.3138 31.0063V28.0146C65.3138 27.7855 65.2672 27.5868 65.1741 27.4185C65.0846 27.2466 64.9485 27.1141 64.7659 27.021C64.5833 26.9279 64.3577 26.8813 64.0892 26.8813C63.8385 26.8813 63.6183 26.9243 63.4285 27.0103C63.2423 27.0962 63.0955 27.209 62.9881 27.3486C62.8842 27.4883 62.8323 27.6387 62.8323 27.7998H61.8387C61.8387 27.5921 61.8924 27.3862 61.9998 27.1821C62.1072 26.978 62.2612 26.7936 62.4617 26.6289C62.6658 26.4606 62.9093 26.3281 63.1922 26.2314C63.4786 26.1312 63.7973 26.0811 64.1482 26.0811C64.5708 26.0811 64.9432 26.1527 65.2654 26.2959C65.5913 26.4391 65.8455 26.6558 66.0281 26.9458C66.2143 27.2323 66.3074 27.5921 66.3074 28.0254V30.7324C66.3074 30.9258 66.3235 31.1317 66.3558 31.3501C66.3916 31.5685 66.4435 31.7565 66.5115 31.9141V32H65.4749C65.4248 31.8854 65.3854 31.7332 65.3567 31.5435C65.3281 31.3501 65.3138 31.1711 65.3138 31.0063ZM65.4856 28.4766L65.4964 29.1748H64.492C64.2091 29.1748 63.9567 29.1981 63.7347 29.2446C63.5127 29.2876 63.3265 29.3538 63.1761 29.4434C63.0257 29.5329 62.9111 29.6457 62.8323 29.7817C62.7535 29.9142 62.7142 30.07 62.7142 30.249C62.7142 30.4316 62.7553 30.5981 62.8377 30.7485C62.9201 30.8989 63.0436 31.0189 63.2083 31.1084C63.3766 31.1943 63.5825 31.2373 63.826 31.2373C64.1303 31.2373 64.3989 31.1729 64.6316 31.0439C64.8644 30.915 65.0488 30.7575 65.1849 30.5713C65.3245 30.3851 65.3997 30.2043 65.4104 30.0288L65.8348 30.5068C65.8097 30.6572 65.7417 30.8237 65.6307 31.0063C65.5197 31.189 65.3711 31.3644 65.1849 31.5327C65.0022 31.6974 64.7838 31.8353 64.5296 31.9463C64.2789 32.0537 63.9961 32.1074 63.681 32.1074C63.2871 32.1074 62.9415 32.0304 62.6443 31.8765C62.3507 31.7225 62.1215 31.5166 61.9568 31.2588C61.7957 30.9974 61.7151 30.7056 61.7151 30.3833C61.7151 30.0718 61.776 29.7979 61.8978 29.5615C62.0195 29.3216 62.195 29.1229 62.4241 28.9653C62.6533 28.8042 62.929 28.6825 63.2513 28.6001C63.5735 28.5177 63.9334 28.4766 64.3309 28.4766H65.4856Z" fill="#002A66"/>
<path d="M70.065 23.75H71.0641V30.8721L70.9781 32H70.065V23.75ZM74.9903 29.0459V29.1587C74.9903 29.5812 74.9402 29.9733 74.8399 30.335C74.7397 30.693 74.5929 31.0046 74.3995 31.2695C74.2062 31.5345 73.9698 31.7404 73.6905 31.8872C73.4112 32.034 73.0908 32.1074 72.7291 32.1074C72.3603 32.1074 72.0362 32.0448 71.7569 31.9194C71.4812 31.7905 71.2485 31.6061 71.0587 31.3662C70.8689 31.1263 70.7167 30.8363 70.6021 30.4961C70.4911 30.1559 70.4142 29.7728 70.3712 29.3467V28.8525C70.4142 28.4229 70.4911 28.0379 70.6021 27.6978C70.7167 27.3576 70.8689 27.0675 71.0587 26.8276C71.2485 26.5841 71.4812 26.3997 71.7569 26.2744C72.0326 26.1455 72.3531 26.0811 72.7184 26.0811C73.0836 26.0811 73.4076 26.1527 73.6905 26.2959C73.9734 26.4355 74.2097 26.6361 74.3995 26.8975C74.5929 27.1589 74.7397 27.4722 74.8399 27.8374C74.9402 28.1991 74.9903 28.6019 74.9903 29.0459ZM73.9913 29.1587V29.0459C73.9913 28.7559 73.9645 28.4837 73.9107 28.2295C73.857 27.9717 73.7711 27.7461 73.6529 27.5527C73.5348 27.3558 73.379 27.2018 73.1856 27.0908C72.9923 26.9762 72.7542 26.9189 72.4713 26.9189C72.2206 26.9189 72.0022 26.9619 71.816 27.0479C71.6334 27.1338 71.4776 27.2502 71.3487 27.397C71.2198 27.5402 71.1142 27.7049 71.0318 27.8911C70.9531 28.0737 70.894 28.2635 70.8546 28.4604V29.7549C70.9119 30.0055 71.005 30.2472 71.1339 30.48C71.2664 30.7091 71.4418 30.8971 71.6603 31.0439C71.8823 31.1908 72.1562 31.2642 72.482 31.2642C72.7506 31.2642 72.9798 31.2104 73.1695 31.103C73.3629 30.992 73.5187 30.8398 73.6368 30.6465C73.7586 30.4531 73.8481 30.2293 73.9054 29.9751C73.9627 29.7209 73.9913 29.4487 73.9913 29.1587Z" fill="#002A66"/>
<path d="M78.184 29.1587V29.0352C78.184 28.6162 78.2449 28.2277 78.3666 27.8696C78.4883 27.508 78.6638 27.1947 78.893 26.9297C79.1221 26.6611 79.3996 26.4535 79.7255 26.3066C80.0513 26.1562 80.4166 26.0811 80.8212 26.0811C81.2294 26.0811 81.5964 26.1562 81.9223 26.3066C82.2517 26.4535 82.531 26.6611 82.7602 26.9297C82.9929 27.1947 83.1702 27.508 83.2919 27.8696C83.4136 28.2277 83.4745 28.6162 83.4745 29.0352V29.1587C83.4745 29.5776 83.4136 29.9661 83.2919 30.3242C83.1702 30.6823 82.9929 30.9956 82.7602 31.2642C82.531 31.5291 82.2535 31.7368 81.9276 31.8872C81.6054 32.034 81.2401 32.1074 80.8319 32.1074C80.4237 32.1074 80.0567 32.034 79.7309 31.8872C79.405 31.7368 79.1257 31.5291 78.893 31.2642C78.6638 30.9956 78.4883 30.6823 78.3666 30.3242C78.2449 29.9661 78.184 29.5776 78.184 29.1587ZM79.1776 29.0352V29.1587C79.1776 29.4487 79.2117 29.7227 79.2797 29.9805C79.3477 30.2347 79.4498 30.4603 79.5858 30.6572C79.7255 30.8542 79.8992 31.0099 80.1068 31.1245C80.3145 31.2355 80.5562 31.291 80.8319 31.291C81.1041 31.291 81.3422 31.2355 81.5463 31.1245C81.754 31.0099 81.9258 30.8542 82.0619 30.6572C82.198 30.4603 82.3 30.2347 82.3681 29.9805C82.4397 29.7227 82.4755 29.4487 82.4755 29.1587V29.0352C82.4755 28.7487 82.4397 28.4784 82.3681 28.2241C82.3 27.9663 82.1962 27.7389 82.0565 27.542C81.9205 27.3415 81.7486 27.1839 81.5409 27.0693C81.3368 26.9548 81.0969 26.8975 80.8212 26.8975C80.5491 26.8975 80.3091 26.9548 80.1015 27.0693C79.8974 27.1839 79.7255 27.3415 79.5858 27.542C79.4498 27.7389 79.3477 27.9663 79.2797 28.2241C79.2117 28.4784 79.1776 28.7487 79.1776 29.0352Z" fill="#002A66"/>
<path d="M87.9143 27.1016V32H86.9206V26.1885H87.8874L87.9143 27.1016ZM89.7297 26.1562L89.7243 27.0801C89.642 27.0622 89.5632 27.0514 89.488 27.0479C89.4164 27.0407 89.334 27.0371 89.2409 27.0371C89.0118 27.0371 88.8094 27.0729 88.634 27.1445C88.4585 27.2161 88.3099 27.3164 88.1882 27.4453C88.0664 27.5742 87.9698 27.7282 87.8981 27.9072C87.8301 28.0827 87.7854 28.276 87.7639 28.4873L87.4846 28.6484C87.4846 28.2975 87.5186 27.9681 87.5866 27.6602C87.6582 27.3522 87.7674 27.0801 87.9143 26.8438C88.0611 26.6038 88.2473 26.4176 88.4729 26.2852C88.702 26.1491 88.9742 26.0811 89.2893 26.0811C89.3609 26.0811 89.4432 26.09 89.5363 26.1079C89.6294 26.1222 89.6939 26.1383 89.7297 26.1562Z" fill="#002A66"/>
<path d="M96.0601 31.0063V28.0146C96.0601 27.7855 96.0135 27.5868 95.9204 27.4185C95.8309 27.2466 95.6948 27.1141 95.5122 27.021C95.3296 26.9279 95.104 26.8813 94.8354 26.8813C94.5848 26.8813 94.3646 26.9243 94.1748 27.0103C93.9886 27.0962 93.8418 27.209 93.7344 27.3486C93.6305 27.4883 93.5786 27.6387 93.5786 27.7998H92.585C92.585 27.5921 92.6387 27.3862 92.7461 27.1821C92.8535 26.978 93.0075 26.7936 93.208 26.6289C93.4121 26.4606 93.6556 26.3281 93.9385 26.2314C94.2249 26.1312 94.5436 26.0811 94.8945 26.0811C95.3171 26.0811 95.6895 26.1527 96.0117 26.2959C96.3376 26.4391 96.5918 26.6558 96.7744 26.9458C96.9606 27.2323 97.0537 27.5921 97.0537 28.0254V30.7324C97.0537 30.9258 97.0698 31.1317 97.1021 31.3501C97.1379 31.5685 97.1898 31.7565 97.2578 31.9141V32H96.2212C96.1711 31.8854 96.1317 31.7332 96.103 31.5435C96.0744 31.3501 96.0601 31.1711 96.0601 31.0063ZM96.2319 28.4766L96.2427 29.1748H95.2383C94.9554 29.1748 94.703 29.1981 94.481 29.2446C94.259 29.2876 94.0728 29.3538 93.9224 29.4434C93.772 29.5329 93.6574 29.6457 93.5786 29.7817C93.4998 29.9142 93.4604 30.07 93.4604 30.249C93.4604 30.4316 93.5016 30.5981 93.584 30.7485C93.6663 30.8989 93.7899 31.0189 93.9546 31.1084C94.1229 31.1943 94.3288 31.2373 94.5723 31.2373C94.8766 31.2373 95.1452 31.1729 95.3779 31.0439C95.6107 30.915 95.7951 30.7575 95.9312 30.5713C96.0708 30.3851 96.146 30.2043 96.1567 30.0288L96.5811 30.5068C96.556 30.6572 96.488 30.8237 96.377 31.0063C96.266 31.189 96.1174 31.3644 95.9312 31.5327C95.7485 31.6974 95.5301 31.8353 95.2759 31.9463C95.0252 32.0537 94.7424 32.1074 94.4272 32.1074C94.0334 32.1074 93.6878 32.0304 93.3906 31.8765C93.097 31.7225 92.8678 31.5166 92.7031 31.2588C92.542 30.9974 92.4614 30.7056 92.4614 30.3833C92.4614 30.0718 92.5223 29.7979 92.644 29.5615C92.7658 29.3216 92.9412 29.1229 93.1704 28.9653C93.3996 28.8042 93.6753 28.6825 93.9976 28.6001C94.3198 28.5177 94.6797 28.4766 95.0771 28.4766H96.2319Z" fill="#002A66"/>
<path d="M103.25 26.1885V26.9512H100.108V26.1885H103.25ZM101.171 24.7759H102.165V30.5605C102.165 30.7575 102.195 30.9061 102.256 31.0063C102.317 31.1066 102.396 31.1729 102.492 31.2051C102.589 31.2373 102.693 31.2534 102.804 31.2534C102.886 31.2534 102.972 31.2463 103.062 31.2319C103.155 31.214 103.225 31.1997 103.271 31.189L103.277 32C103.198 32.0251 103.094 32.0483 102.965 32.0698C102.84 32.0949 102.688 32.1074 102.509 32.1074C102.265 32.1074 102.041 32.0591 101.837 31.9624C101.633 31.8657 101.47 31.7046 101.348 31.479C101.23 31.2498 101.171 30.9419 101.171 30.5552V24.7759Z" fill="#002A66"/>
<path d="M106.245 29.1587V29.0352C106.245 28.6162 106.306 28.2277 106.427 27.8696C106.549 27.508 106.725 27.1947 106.954 26.9297C107.183 26.6611 107.46 26.4535 107.786 26.3066C108.112 26.1562 108.477 26.0811 108.882 26.0811C109.29 26.0811 109.657 26.1562 109.983 26.3066C110.312 26.4535 110.592 26.6611 110.821 26.9297C111.054 27.1947 111.231 27.508 111.353 27.8696C111.474 28.2277 111.535 28.6162 111.535 29.0352V29.1587C111.535 29.5776 111.474 29.9661 111.353 30.3242C111.231 30.6823 111.054 30.9956 110.821 31.2642C110.592 31.5291 110.314 31.7368 109.988 31.8872C109.666 32.034 109.301 32.1074 108.893 32.1074C108.484 32.1074 108.117 32.034 107.792 31.8872C107.466 31.7368 107.186 31.5291 106.954 31.2642C106.725 30.9956 106.549 30.6823 106.427 30.3242C106.306 29.9661 106.245 29.5776 106.245 29.1587ZM107.238 29.0352V29.1587C107.238 29.4487 107.272 29.7227 107.34 29.9805C107.408 30.2347 107.511 30.4603 107.647 30.6572C107.786 30.8542 107.96 31.0099 108.168 31.1245C108.375 31.2355 108.617 31.291 108.893 31.291C109.165 31.291 109.403 31.2355 109.607 31.1245C109.815 31.0099 109.987 30.8542 110.123 30.6572C110.259 30.4603 110.361 30.2347 110.429 29.9805C110.5 29.7227 110.536 29.4487 110.536 29.1587V29.0352C110.536 28.7487 110.5 28.4784 110.429 28.2241C110.361 27.9663 110.257 27.7389 110.117 27.542C109.981 27.3415 109.809 27.1839 109.602 27.0693C109.398 26.9548 109.158 26.8975 108.882 26.8975C108.61 26.8975 108.37 26.9548 108.162 27.0693C107.958 27.1839 107.786 27.3415 107.647 27.542C107.511 27.7389 107.408 27.9663 107.34 28.2241C107.272 28.4784 107.238 28.7487 107.238 29.0352Z" fill="#002A66"/>
<path d="M115.975 27.1016V32H114.981V26.1885H115.948L115.975 27.1016ZM117.79 26.1562L117.785 27.0801C117.703 27.0622 117.624 27.0514 117.549 27.0479C117.477 27.0407 117.395 27.0371 117.302 27.0371C117.072 27.0371 116.87 27.0729 116.695 27.1445C116.519 27.2161 116.371 27.3164 116.249 27.4453C116.127 27.5742 116.03 27.7282 115.959 27.9072C115.891 28.0827 115.846 28.276 115.825 28.4873L115.545 28.6484C115.545 28.2975 115.579 27.9681 115.647 27.6602C115.719 27.3522 115.828 27.0801 115.975 26.8438C116.122 26.6038 116.308 26.4176 116.534 26.2852C116.763 26.1491 117.035 26.0811 117.35 26.0811C117.422 26.0811 117.504 26.09 117.597 26.1079C117.69 26.1222 117.755 26.1383 117.79 26.1562Z" fill="#002A66"/>
<path d="M121.988 26.1885V32H120.989V26.1885H121.988ZM120.914 24.647C120.914 24.4858 120.963 24.3498 121.059 24.2388C121.16 24.1278 121.306 24.0723 121.5 24.0723C121.689 24.0723 121.835 24.1278 121.935 24.2388C122.039 24.3498 122.091 24.4858 122.091 24.647C122.091 24.8009 122.039 24.9334 121.935 25.0444C121.835 25.1519 121.689 25.2056 121.5 25.2056C121.306 25.2056 121.16 25.1519 121.059 25.0444C120.963 24.9334 120.914 24.8009 120.914 24.647Z" fill="#002A66"/>
<path d="M128.195 32.1074C127.791 32.1074 127.424 32.0394 127.094 31.9033C126.768 31.7637 126.487 31.5685 126.251 31.3179C126.018 31.0672 125.839 30.77 125.714 30.4263C125.589 30.0825 125.526 29.7065 125.526 29.2983V29.0728C125.526 28.6001 125.596 28.1794 125.735 27.8105C125.875 27.4382 126.065 27.123 126.305 26.8652C126.545 26.6074 126.817 26.4123 127.121 26.2798C127.425 26.1473 127.741 26.0811 128.066 26.0811C128.482 26.0811 128.84 26.1527 129.141 26.2959C129.445 26.4391 129.694 26.6396 129.887 26.8975C130.081 27.1517 130.224 27.4525 130.317 27.7998C130.41 28.1436 130.457 28.5195 130.457 28.9277V29.3735H126.117V28.5625H129.463V28.4873C129.449 28.2295 129.395 27.9788 129.302 27.7354C129.212 27.4919 129.069 27.2913 128.872 27.1338C128.675 26.9762 128.407 26.8975 128.066 26.8975C127.841 26.8975 127.633 26.9458 127.443 27.0425C127.254 27.1356 127.091 27.2752 126.955 27.4614C126.819 27.6476 126.713 27.875 126.638 28.1436C126.562 28.4121 126.525 28.7218 126.525 29.0728V29.2983C126.525 29.5741 126.562 29.8337 126.638 30.0771C126.716 30.3171 126.829 30.5283 126.976 30.7109C127.126 30.8936 127.307 31.0368 127.519 31.1406C127.733 31.2445 127.977 31.2964 128.249 31.2964C128.6 31.2964 128.897 31.2248 129.141 31.0815C129.384 30.9383 129.597 30.7467 129.78 30.5068L130.381 30.9849C130.256 31.1746 130.097 31.3555 129.903 31.5273C129.71 31.6992 129.472 31.8389 129.189 31.9463C128.91 32.0537 128.578 32.1074 128.195 32.1074Z" fill="#002A66"/>
<path d="M137.2 30.4585C137.2 30.3153 137.168 30.1828 137.104 30.061C137.043 29.9357 136.916 29.8229 136.722 29.7227C136.533 29.6188 136.246 29.5293 135.863 29.4541C135.541 29.3861 135.249 29.3055 134.988 29.2124C134.73 29.1193 134.51 29.0065 134.327 28.874C134.148 28.7415 134.01 28.5858 133.913 28.4067C133.817 28.2277 133.768 28.0182 133.768 27.7783C133.768 27.5492 133.818 27.3325 133.919 27.1284C134.023 26.9243 134.168 26.7435 134.354 26.5859C134.544 26.4284 134.771 26.3049 135.036 26.2153C135.301 26.1258 135.596 26.0811 135.922 26.0811C136.388 26.0811 136.785 26.1634 137.115 26.3281C137.444 26.4928 137.696 26.7131 137.872 26.9888C138.047 27.2609 138.135 27.5635 138.135 27.8965H137.141C137.141 27.7354 137.093 27.5796 136.996 27.4292C136.903 27.2752 136.765 27.1481 136.583 27.0479C136.404 26.9476 136.184 26.8975 135.922 26.8975C135.646 26.8975 135.423 26.9404 135.251 27.0264C135.082 27.1087 134.959 27.2144 134.88 27.3433C134.805 27.4722 134.767 27.6082 134.767 27.7515C134.767 27.8589 134.785 27.9556 134.821 28.0415C134.86 28.1239 134.929 28.2008 135.025 28.2725C135.122 28.3405 135.258 28.4049 135.433 28.4658C135.609 28.5267 135.833 28.5876 136.105 28.6484C136.581 28.7559 136.973 28.8848 137.281 29.0352C137.589 29.1855 137.818 29.37 137.969 29.5884C138.119 29.8068 138.194 30.0718 138.194 30.3833C138.194 30.6375 138.14 30.8703 138.033 31.0815C137.929 31.2928 137.777 31.4754 137.576 31.6294C137.38 31.7798 137.143 31.8979 136.867 31.9839C136.595 32.0662 136.289 32.1074 135.949 32.1074C135.437 32.1074 135.004 32.0161 134.649 31.8335C134.295 31.6509 134.026 31.4146 133.844 31.1245C133.661 30.8345 133.57 30.5283 133.57 30.2061H134.569C134.583 30.4782 134.662 30.6948 134.805 30.856C134.948 31.0135 135.124 31.1263 135.331 31.1943C135.539 31.2588 135.745 31.291 135.949 31.291C136.221 31.291 136.449 31.2552 136.631 31.1836C136.817 31.112 136.959 31.0135 137.055 30.8882C137.152 30.7629 137.2 30.6196 137.2 30.4585Z" fill="#002A66"/>
</svg>
